<?xml version="1.0" encoding="UTF-8" standalone="no"?>
<!DOCTYPE svg PUBLIC "-//W3C//DTD SVG 1.1//EN"
 "http://www.w3.org/Graphics/SVG/1.1/DTD/svg11.dtd">
<!-- Generated by graphviz version 2.40.1 (20161225.0304)
 -->
<!-- Title: dependencies Pages: 1 -->
<svg width="2169pt" height="349pt"
 viewBox="0.00 0.00 2169.00 349.00" xmlns="http://www.w3.org/2000/svg" xmlns:xlink="http://www.w3.org/1999/xlink">
<g id="graph0" class="graph" transform="scale(1 1) rotate(0) translate(4 345)">
<title>dependencies</title>
<polygon fill="#ffffff" stroke="transparent" points="-4,4 -4,-345 2165,-345 2165,4 -4,4"/>
<text text-anchor="start" x="1059.5091" y="-42.4" font-family="sans-serif" font-weight="bold" font-size="14.00" fill="#000000">Legend</text>
<polygon fill="#ffffb3" stroke="transparent" points="846.5,-10 846.5,-30 866.5,-30 866.5,-10 846.5,-10"/>
<text text-anchor="start" x="870.129" y="-15.4" font-family="sans-serif" font-size="14.00" fill="#000000"> &#160;Declarations</text>
<polygon fill="#8dd3c7" stroke="transparent" points="959.5,-10 959.5,-30 979.5,-30 979.5,-10 959.5,-10"/>
<text text-anchor="start" x="983.2251" y="-15.4" font-family="sans-serif" font-size="14.00" fill="#000000"> &#160;Module</text>
<polygon fill="#80b1d3" stroke="transparent" points="1045.5,-10 1045.5,-30 1065.5,-30 1065.5,-10 1045.5,-10"/>
<text text-anchor="start" x="1069.2812" y="-15.4" font-family="sans-serif" font-size="14.00" fill="#000000"> &#160;Bootstrap</text>
<polygon fill="#fdb462" stroke="transparent" points="1142.5,-10 1142.5,-30 1162.5,-30 1162.5,-10 1142.5,-10"/>
<text text-anchor="start" x="1166.1732" y="-15.4" font-family="sans-serif" font-size="14.00" fill="#000000"> &#160;Providers</text>
<polygon fill="#fb8072" stroke="transparent" points="1238.5,-10 1238.5,-30 1258.5,-30 1258.5,-10 1238.5,-10"/>
<text text-anchor="start" x="1262.2258" y="-15.4" font-family="sans-serif" font-size="14.00" fill="#000000"> &#160;Exports</text>
<g id="clust1" class="cluster">
<title>cluster_GridModule</title>
<polygon fill="none" stroke="#000000" stroke-dasharray="1,5" points="8,-70 8,-333 2153,-333 2153,-70 8,-70"/>
</g>
<g id="clust2" class="cluster">
<title>cluster_GridModule_declarations</title>
<polygon fill="none" stroke="#000000" points="16,-143 16,-195 2145,-195 2145,-143 16,-143"/>
</g>
<g id="clust3" class="cluster">
<title>cluster_GridModule_GridComponent_providers</title>
<polygon fill="none" stroke="#000000" points="1634,-78 1634,-130 2145,-130 2145,-78 1634,-78"/>
</g>
<g id="clust19" class="cluster">
<title>cluster_GridModule_exports</title>
<polygon fill="none" stroke="#000000" points="1121,-273 1121,-325 1247,-325 1247,-273 1121,-273"/>
</g>
<!-- GridComponent -->
<g id="node1" class="node">
<title>GridComponent</title>
<polygon fill="#ffffb3" stroke="#000000" points="2137.4902,-187 2030.5098,-187 2030.5098,-151 2137.4902,-151 2137.4902,-187"/>
<text text-anchor="middle" x="2084" y="-164.8" font-family="Times,serif" font-size="14.00" fill="#000000">GridComponent</text>
</g>
<!-- GridModule -->
<g id="node16" class="node">
<title>GridModule</title>
<polygon fill="#8dd3c7" stroke="#000000" points="1226.7079,-252 1223.7079,-256 1202.7079,-256 1199.7079,-252 1141.2921,-252 1141.2921,-216 1226.7079,-216 1226.7079,-252"/>
<text text-anchor="middle" x="1184" y="-229.8" font-family="Times,serif" font-size="14.00" fill="#000000">GridModule</text>
</g>
<!-- GridComponent&#45;&gt;GridModule -->
<g id="edge1" class="edge">
<title>GridComponent&#45;&gt;GridModule</title>
<path fill="none" stroke="#000000" d="M2084,-187.3228C2084,-210.6602 2084,-248 2084,-248 2084,-248 1236.8034,-248 1236.8034,-248"/>
<polygon fill="#000000" stroke="#000000" points="1236.8034,-244.5001 1226.8034,-248 1236.8034,-251.5001 1236.8034,-244.5001"/>
</g>
<!-- ColumnHeaderComponent -->
<g id="node2" class="node">
<title>ColumnHeaderComponent</title>
<polygon fill="#ffffb3" stroke="#000000" points="2012.3613,-187 1845.6387,-187 1845.6387,-151 2012.3613,-151 2012.3613,-187"/>
<text text-anchor="middle" x="1929" y="-164.8" font-family="Times,serif" font-size="14.00" fill="#000000">ColumnHeaderComponent</text>
</g>
<!-- ColumnHeaderComponent&#45;&gt;GridModule -->
<g id="edge5" class="edge">
<title>ColumnHeaderComponent&#45;&gt;GridModule</title>
<path fill="none" stroke="#000000" d="M1929,-187.2921C1929,-209.2057 1929,-243 1929,-243 1929,-243 1236.7302,-243 1236.7302,-243"/>
<polygon fill="#000000" stroke="#000000" points="1236.7303,-239.5001 1226.7302,-243 1236.7302,-246.5001 1236.7303,-239.5001"/>
</g>
<!-- IsVisiblePipe -->
<g id="node3" class="node">
<title>IsVisiblePipe</title>
<polygon fill="#ffffb3" stroke="#000000" points="1827.9316,-187 1736.0684,-187 1736.0684,-151 1827.9316,-151 1827.9316,-187"/>
<text text-anchor="middle" x="1782" y="-164.8" font-family="Times,serif" font-size="14.00" fill="#000000">IsVisiblePipe</text>
</g>
<!-- IsVisiblePipe&#45;&gt;GridModule -->
<g id="edge6" class="edge">
<title>IsVisiblePipe&#45;&gt;GridModule</title>
<path fill="none" stroke="#000000" d="M1782,-187.0267C1782,-207.7672 1782,-239 1782,-239 1782,-239 1237.0067,-239 1237.0067,-239"/>
<polygon fill="#000000" stroke="#000000" points="1237.0067,-235.5001 1227.0067,-239 1237.0067,-242.5001 1237.0067,-235.5001"/>
</g>
<!-- IsGroupPipe -->
<g id="node4" class="node">
<title>IsGroupPipe</title>
<polygon fill="#ffffb3" stroke="#000000" points="1718.2605,-187 1631.7395,-187 1631.7395,-151 1718.2605,-151 1718.2605,-187"/>
<text text-anchor="middle" x="1675" y="-164.8" font-family="Times,serif" font-size="14.00" fill="#000000">IsGroupPipe</text>
</g>
<!-- IsGroupPipe&#45;&gt;GridModule -->
<g id="edge7" class="edge">
<title>IsGroupPipe&#45;&gt;GridModule</title>
<path fill="none" stroke="#000000" d="M1675,-187.1061C1675,-206.3391 1675,-234 1675,-234 1675,-234 1236.7141,-234 1236.7141,-234"/>
<polygon fill="#000000" stroke="#000000" points="1236.7141,-230.5001 1226.7141,-234 1236.7141,-237.5001 1236.7141,-230.5001"/>
</g>
<!-- IsFixedPipe -->
<g id="node5" class="node">
<title>IsFixedPipe</title>
<polygon fill="#ffffb3" stroke="#000000" points="1613.3809,-187 1530.6191,-187 1530.6191,-151 1613.3809,-151 1613.3809,-187"/>
<text text-anchor="middle" x="1572" y="-164.8" font-family="Times,serif" font-size="14.00" fill="#000000">IsFixedPipe</text>
</g>
<!-- IsFixedPipe&#45;&gt;GridModule -->
<g id="edge8" class="edge">
<title>IsFixedPipe&#45;&gt;GridModule</title>
<path fill="none" stroke="#000000" d="M1572,-187.302C1572,-205.2699 1572,-230 1572,-230 1572,-230 1236.6327,-230 1236.6327,-230"/>
<polygon fill="#000000" stroke="#000000" points="1236.6327,-226.5001 1226.6327,-230 1236.6326,-233.5001 1236.6327,-226.5001"/>
</g>
<!-- IsRowVisiblePipe -->
<g id="node6" class="node">
<title>IsRowVisiblePipe</title>
<polygon fill="#ffffb3" stroke="#000000" points="1512.8739,-187 1395.1261,-187 1395.1261,-151 1512.8739,-151 1512.8739,-187"/>
<text text-anchor="middle" x="1454" y="-164.8" font-family="Times,serif" font-size="14.00" fill="#000000">IsRowVisiblePipe</text>
</g>
<!-- IsRowVisiblePipe&#45;&gt;GridModule -->
<g id="edge9" class="edge">
<title>IsRowVisiblePipe&#45;&gt;GridModule</title>
<path fill="none" stroke="#000000" d="M1454,-187.027C1454,-203.3976 1454,-225 1454,-225 1454,-225 1236.7823,-225 1236.7823,-225"/>
<polygon fill="#000000" stroke="#000000" points="1236.7823,-221.5001 1226.7823,-225 1236.7823,-228.5001 1236.7823,-221.5001"/>
</g>
<!-- TextEditRenderer -->
<g id="node7" class="node">
<title>TextEditRenderer</title>
<polygon fill="#ffffb3" stroke="#000000" points="1377.2936,-187 1260.7064,-187 1260.7064,-151 1377.2936,-151 1377.2936,-187"/>
<text text-anchor="middle" x="1319" y="-164.8" font-family="Times,serif" font-size="14.00" fill="#000000">TextEditRenderer</text>
</g>
<!-- TextEditRenderer&#45;&gt;GridModule -->
<g id="edge10" class="edge">
<title>TextEditRenderer&#45;&gt;GridModule</title>
<path fill="none" stroke="#000000" d="M1319,-187.1871C1319,-202.1824 1319,-221 1319,-221 1319,-221 1236.7148,-221 1236.7148,-221"/>
<polygon fill="#000000" stroke="#000000" points="1236.7149,-217.5001 1226.7148,-221 1236.7148,-224.5001 1236.7149,-217.5001"/>
</g>
<!-- DateEditRenderer -->
<g id="node8" class="node">
<title>DateEditRenderer</title>
<polygon fill="#ffffb3" stroke="#000000" points="1242.5618,-187 1125.4382,-187 1125.4382,-151 1242.5618,-151 1242.5618,-187"/>
<text text-anchor="middle" x="1184" y="-164.8" font-family="Times,serif" font-size="14.00" fill="#000000">DateEditRenderer</text>
</g>
<!-- DateEditRenderer&#45;&gt;GridModule -->
<g id="edge11" class="edge">
<title>DateEditRenderer&#45;&gt;GridModule</title>
<path fill="none" stroke="#000000" d="M1184,-187.1061C1184,-187.1061 1184,-205.991 1184,-205.991"/>
<polygon fill="#000000" stroke="#000000" points="1180.5001,-205.9909 1184,-215.991 1187.5001,-205.991 1180.5001,-205.9909"/>
</g>
<!-- ChoiceEditRenderer -->
<g id="node9" class="node">
<title>ChoiceEditRenderer</title>
<polygon fill="#ffffb3" stroke="#000000" points="1107.2921,-187 976.7079,-187 976.7079,-151 1107.2921,-151 1107.2921,-187"/>
<text text-anchor="middle" x="1042" y="-164.8" font-family="Times,serif" font-size="14.00" fill="#000000">ChoiceEditRenderer</text>
</g>
<!-- ChoiceEditRenderer&#45;&gt;GridModule -->
<g id="edge12" class="edge">
<title>ChoiceEditRenderer&#45;&gt;GridModule</title>
<path fill="none" stroke="#000000" d="M1042,-187.1871C1042,-202.1824 1042,-221 1042,-221 1042,-221 1131.3953,-221 1131.3953,-221"/>
<polygon fill="#000000" stroke="#000000" points="1131.3954,-224.5001 1141.3953,-221 1131.3953,-217.5001 1131.3954,-224.5001"/>
</g>
<!-- TextFilterRenderer -->
<g id="node10" class="node">
<title>TextFilterRenderer</title>
<polygon fill="#ffffb3" stroke="#000000" points="958.7893,-187 835.2107,-187 835.2107,-151 958.7893,-151 958.7893,-187"/>
<text text-anchor="middle" x="897" y="-164.8" font-family="Times,serif" font-size="14.00" fill="#000000">TextFilterRenderer</text>
</g>
<!-- TextFilterRenderer&#45;&gt;GridModule -->
<g id="edge13" class="edge">
<title>TextFilterRenderer&#45;&gt;GridModule</title>
<path fill="none" stroke="#000000" d="M897,-187.027C897,-203.3976 897,-225 897,-225 897,-225 1131.3431,-225 1131.3431,-225"/>
<polygon fill="#000000" stroke="#000000" points="1131.3431,-228.5001 1141.3431,-225 1131.3431,-221.5001 1131.3431,-228.5001"/>
</g>
<!-- SelectFilterRenderer -->
<g id="node11" class="node">
<title>SelectFilterRenderer</title>
<polygon fill="#ffffb3" stroke="#000000" points="816.8389,-187 685.1611,-187 685.1611,-151 816.8389,-151 816.8389,-187"/>
<text text-anchor="middle" x="751" y="-164.8" font-family="Times,serif" font-size="14.00" fill="#000000">SelectFilterRenderer</text>
</g>
<!-- SelectFilterRenderer&#45;&gt;GridModule -->
<g id="edge14" class="edge">
<title>SelectFilterRenderer&#45;&gt;GridModule</title>
<path fill="none" stroke="#000000" d="M751,-187.302C751,-205.2699 751,-230 751,-230 751,-230 1131.2973,-230 1131.2973,-230"/>
<polygon fill="#000000" stroke="#000000" points="1131.2973,-233.5001 1141.2973,-230 1131.2972,-226.5001 1131.2973,-233.5001"/>
</g>
<!-- CompareFilterRenderer -->
<g id="node12" class="node">
<title>CompareFilterRenderer</title>
<polygon fill="#ffffb3" stroke="#000000" points="667.4482,-187 518.5518,-187 518.5518,-151 667.4482,-151 667.4482,-187"/>
<text text-anchor="middle" x="593" y="-164.8" font-family="Times,serif" font-size="14.00" fill="#000000">CompareFilterRenderer</text>
</g>
<!-- CompareFilterRenderer&#45;&gt;GridModule -->
<g id="edge15" class="edge">
<title>CompareFilterRenderer&#45;&gt;GridModule</title>
<path fill="none" stroke="#000000" d="M593,-187.1061C593,-206.3391 593,-234 593,-234 593,-234 1131.0207,-234 1131.0207,-234"/>
<polygon fill="#000000" stroke="#000000" points="1131.0207,-237.5001 1141.0207,-234 1131.0206,-230.5001 1131.0207,-237.5001"/>
</g>
<!-- BigTextPopup -->
<g id="node13" class="node">
<title>BigTextPopup</title>
<polygon fill="#ffffb3" stroke="#000000" points="500.6682,-187 403.3318,-187 403.3318,-151 500.6682,-151 500.6682,-187"/>
<text text-anchor="middle" x="452" y="-164.8" font-family="Times,serif" font-size="14.00" fill="#000000">BigTextPopup</text>
</g>
<!-- BigTextPopup&#45;&gt;GridModule -->
<g id="edge16" class="edge">
<title>BigTextPopup&#45;&gt;GridModule</title>
<path fill="none" stroke="#000000" d="M452,-187.0267C452,-207.7672 452,-239 452,-239 452,-239 1131.2121,-239 1131.2121,-239"/>
<polygon fill="#000000" stroke="#000000" points="1131.2122,-242.5001 1141.2121,-239 1131.2121,-235.5001 1131.2122,-242.5001"/>
</g>
<!-- ConfigMenuComponent -->
<g id="node14" class="node">
<title>ConfigMenuComponent</title>
<polygon fill="#ffffb3" stroke="#000000" points="385.3794,-187 232.6206,-187 232.6206,-151 385.3794,-151 385.3794,-187"/>
<text text-anchor="middle" x="309" y="-164.8" font-family="Times,serif" font-size="14.00" fill="#000000">ConfigMenuComponent</text>
</g>
<!-- ConfigMenuComponent&#45;&gt;GridModule -->
<g id="edge17" class="edge">
<title>ConfigMenuComponent&#45;&gt;GridModule</title>
<path fill="none" stroke="#000000" d="M309,-187.2921C309,-209.2057 309,-243 309,-243 309,-243 1131.2046,-243 1131.2046,-243"/>
<polygon fill="#000000" stroke="#000000" points="1131.2046,-246.5001 1141.2046,-243 1131.2046,-239.5001 1131.2046,-246.5001"/>
</g>
<!-- ConfigMultiChoiceComponent -->
<g id="node15" class="node">
<title>ConfigMultiChoiceComponent</title>
<polygon fill="#ffffb3" stroke="#000000" points="214.493,-187 23.507,-187 23.507,-151 214.493,-151 214.493,-187"/>
<text text-anchor="middle" x="119" y="-164.8" font-family="Times,serif" font-size="14.00" fill="#000000">ConfigMultiChoiceComponent</text>
</g>
<!-- ConfigMultiChoiceComponent&#45;&gt;GridModule -->
<g id="edge18" class="edge">
<title>ConfigMultiChoiceComponent&#45;&gt;GridModule</title>
<path fill="none" stroke="#000000" d="M119,-187.3228C119,-210.6602 119,-248 119,-248 119,-248 1131.2632,-248 1131.2632,-248"/>
<polygon fill="#000000" stroke="#000000" points="1131.2632,-251.5001 1141.2632,-248 1131.2632,-244.5001 1131.2632,-251.5001"/>
</g>
<!-- GridComponent  -->
<g id="node20" class="node">
<title>GridComponent </title>
<polygon fill="#fb8072" stroke="#000000" points="1239.4913,-317 1128.5087,-317 1128.5087,-281 1239.4913,-281 1239.4913,-317"/>
<text text-anchor="middle" x="1184" y="-294.8" font-family="Times,serif" font-size="14.00" fill="#000000">GridComponent </text>
</g>
<!-- GridModule&#45;&gt;GridComponent  -->
<g id="edge19" class="edge">
<title>GridModule&#45;&gt;GridComponent </title>
<path fill="none" stroke="#000000" stroke-dasharray="5,2" d="M1184,-252.1061C1184,-252.1061 1184,-270.991 1184,-270.991"/>
<polygon fill="#000000" stroke="#000000" points="1180.5001,-270.9909 1184,-280.991 1187.5001,-270.991 1180.5001,-270.9909"/>
</g>
<!-- GridService -->
<g id="node17" class="node">
<title>GridService</title>
<ellipse fill="#fdb462" stroke="#000000" cx="2079" cy="-104" rx="57.881" ry="18"/>
<text text-anchor="middle" x="2079" y="-99.8" font-family="Times,serif" font-size="14.00" fill="#000000">GridService</text>
</g>
<!-- GridService&#45;&gt;GridComponent -->
<g id="edge2" class="edge">
<title>GridService&#45;&gt;GridComponent</title>
<path fill="none" stroke="#000000" d="M2101.2951,-120.7391C2101.2951,-120.7391 2101.2951,-140.7182 2101.2951,-140.7182"/>
<polygon fill="#000000" stroke="#000000" points="2097.7952,-140.7182 2101.2951,-150.7182 2104.7952,-140.7182 2097.7952,-140.7182"/>
</g>
<!-- GridEventService -->
<g id="node18" class="node">
<title>GridEventService</title>
<ellipse fill="#fdb462" stroke="#000000" cx="1923" cy="-104" rx="80.4344" ry="18"/>
<text text-anchor="middle" x="1923" y="-99.8" font-family="Times,serif" font-size="14.00" fill="#000000">GridEventService</text>
</g>
<!-- GridEventService&#45;&gt;GridComponent -->
<g id="edge3" class="edge">
<title>GridEventService&#45;&gt;GridComponent</title>
<path fill="none" stroke="#000000" d="M2003.4209,-104C2011.5405,-104 2016.8702,-104 2016.8702,-104 2016.8702,-104 2016.8702,-169 2016.8702,-169 2016.8702,-169 2020.4549,-169 2020.4549,-169"/>
<polygon fill="#000000" stroke="#000000" points="2020.455,-172.5001 2030.4549,-169 2020.4549,-165.5001 2020.455,-172.5001"/>
</g>
<!-- GridMessageService -->
<g id="node19" class="node">
<title>GridMessageService</title>
<ellipse fill="#fdb462" stroke="#000000" cx="1733" cy="-104" rx="91.4481" ry="18"/>
<text text-anchor="middle" x="1733" y="-99.8" font-family="Times,serif" font-size="14.00" fill="#000000">GridMessageService</text>
</g>
<!-- GridMessageService&#45;&gt;GridComponent -->
<g id="edge4" class="edge">
<title>GridMessageService&#45;&gt;GridComponent</title>
<path fill="none" stroke="#000000" d="M1780.3794,-119.7268C1780.3794,-128.2263 1780.3794,-137 1780.3794,-137 1780.3794,-137 2065.9,-137 2065.9,-137 2065.9,-137 2065.9,-140.7566 2065.9,-140.7566"/>
<polygon fill="#000000" stroke="#000000" points="2062.4001,-140.7566 2065.9,-150.7566 2069.4001,-140.7566 2062.4001,-140.7566"/>
</g>
</g>
</svg>
