<?xml version="1.0" encoding="UTF-8" standalone="no"?>
<!DOCTYPE svg PUBLIC "-//W3C//DTD SVG 1.1//EN"
 "http://www.w3.org/Graphics/SVG/1.1/DTD/svg11.dtd">
<!-- Generated by graphviz version 2.40.1 (20161225.0304)
 -->
<!-- Title: dependencies Pages: 1 -->
<svg width="2037pt" height="349pt"
 viewBox="0.00 0.00 2037.00 349.00" xmlns="http://www.w3.org/2000/svg" xmlns:xlink="http://www.w3.org/1999/xlink">
<g id="graph0" class="graph" transform="scale(1 1) rotate(0) translate(4 345)">
<title>dependencies</title>
<polygon fill="#ffffff" stroke="transparent" points="-4,4 -4,-345 2033,-345 2033,4 -4,4"/>
<text text-anchor="start" x="993.5091" y="-42.4" font-family="sans-serif" font-weight="bold" font-size="14.00" fill="#000000">Legend</text>
<polygon fill="#ffffb3" stroke="transparent" points="780.5,-10 780.5,-30 800.5,-30 800.5,-10 780.5,-10"/>
<text text-anchor="start" x="804.129" y="-15.4" font-family="sans-serif" font-size="14.00" fill="#000000"> &#160;Declarations</text>
<polygon fill="#8dd3c7" stroke="transparent" points="893.5,-10 893.5,-30 913.5,-30 913.5,-10 893.5,-10"/>
<text text-anchor="start" x="917.2251" y="-15.4" font-family="sans-serif" font-size="14.00" fill="#000000"> &#160;Module</text>
<polygon fill="#80b1d3" stroke="transparent" points="979.5,-10 979.5,-30 999.5,-30 999.5,-10 979.5,-10"/>
<text text-anchor="start" x="1003.2812" y="-15.4" font-family="sans-serif" font-size="14.00" fill="#000000"> &#160;Bootstrap</text>
<polygon fill="#fdb462" stroke="transparent" points="1076.5,-10 1076.5,-30 1096.5,-30 1096.5,-10 1076.5,-10"/>
<text text-anchor="start" x="1100.1732" y="-15.4" font-family="sans-serif" font-size="14.00" fill="#000000"> &#160;Providers</text>
<polygon fill="#fb8072" stroke="transparent" points="1172.5,-10 1172.5,-30 1192.5,-30 1192.5,-10 1172.5,-10"/>
<text text-anchor="start" x="1196.2258" y="-15.4" font-family="sans-serif" font-size="14.00" fill="#000000"> &#160;Exports</text>
<g id="clust1" class="cluster">
<title>cluster_GridModule</title>
<polygon fill="none" stroke="#000000" stroke-dasharray="1,5" points="8,-70 8,-333 2021,-333 2021,-70 8,-70"/>
</g>
<g id="clust2" class="cluster">
<title>cluster_GridModule_declarations</title>
<polygon fill="none" stroke="#000000" points="16,-143 16,-195 2013,-195 2013,-143 16,-143"/>
</g>
<g id="clust9" class="cluster">
<title>cluster_GridModule_GridComponent_providers</title>
<polygon fill="none" stroke="#000000" points="666,-78 666,-130 1177,-130 1177,-78 666,-78"/>
</g>
<g id="clust18" class="cluster">
<title>cluster_GridModule_exports</title>
<polygon fill="none" stroke="#000000" points="835,-273 835,-325 961,-325 961,-273 835,-273"/>
</g>
<!-- BigTextPopup -->
<g id="node1" class="node">
<title>BigTextPopup</title>
<polygon fill="#ffffb3" stroke="#000000" points="2004.6682,-187 1907.3318,-187 1907.3318,-151 2004.6682,-151 2004.6682,-187"/>
<text text-anchor="middle" x="1956" y="-164.8" font-family="Times,serif" font-size="14.00" fill="#000000">BigTextPopup</text>
</g>
<!-- GridModule -->
<g id="node15" class="node">
<title>GridModule</title>
<polygon fill="#8dd3c7" stroke="#000000" points="940.7079,-252 937.7079,-256 916.7079,-256 913.7079,-252 855.2921,-252 855.2921,-216 940.7079,-216 940.7079,-252"/>
<text text-anchor="middle" x="898" y="-229.8" font-family="Times,serif" font-size="14.00" fill="#000000">GridModule</text>
</g>
<!-- BigTextPopup&#45;&gt;GridModule -->
<g id="edge1" class="edge">
<title>BigTextPopup&#45;&gt;GridModule</title>
<path fill="none" stroke="#000000" d="M1956,-187.0908C1956,-210.1328 1956,-247 1956,-247 1956,-247 950.7852,-247 950.7852,-247"/>
<polygon fill="#000000" stroke="#000000" points="950.7853,-243.5001 940.7852,-247 950.7852,-250.5001 950.7853,-243.5001"/>
</g>
<!-- ChoiceEditRenderer -->
<g id="node2" class="node">
<title>ChoiceEditRenderer</title>
<polygon fill="#ffffb3" stroke="#000000" points="1889.2921,-187 1758.7079,-187 1758.7079,-151 1889.2921,-151 1889.2921,-187"/>
<text text-anchor="middle" x="1824" y="-164.8" font-family="Times,serif" font-size="14.00" fill="#000000">ChoiceEditRenderer</text>
</g>
<!-- ChoiceEditRenderer&#45;&gt;GridModule -->
<g id="edge2" class="edge">
<title>ChoiceEditRenderer&#45;&gt;GridModule</title>
<path fill="none" stroke="#000000" d="M1824,-187.0449C1824,-208.6623 1824,-242 1824,-242 1824,-242 950.8057,-242 950.8057,-242"/>
<polygon fill="#000000" stroke="#000000" points="950.8058,-238.5001 940.8057,-242 950.8057,-245.5001 950.8058,-238.5001"/>
</g>
<!-- ColumnHeaderComponent -->
<g id="node3" class="node">
<title>ColumnHeaderComponent</title>
<polygon fill="#ffffb3" stroke="#000000" points="1740.3613,-187 1573.6387,-187 1573.6387,-151 1740.3613,-151 1740.3613,-187"/>
<text text-anchor="middle" x="1657" y="-164.8" font-family="Times,serif" font-size="14.00" fill="#000000">ColumnHeaderComponent</text>
</g>
<!-- ColumnHeaderComponent&#45;&gt;GridModule -->
<g id="edge3" class="edge">
<title>ColumnHeaderComponent&#45;&gt;GridModule</title>
<path fill="none" stroke="#000000" d="M1657,-187.2228C1657,-207.3652 1657,-237 1657,-237 1657,-237 950.7073,-237 950.7073,-237"/>
<polygon fill="#000000" stroke="#000000" points="950.7073,-233.5001 940.7073,-237 950.7072,-240.5001 950.7073,-233.5001"/>
</g>
<!-- CompareFilterRenderer -->
<g id="node4" class="node">
<title>CompareFilterRenderer</title>
<polygon fill="#ffffb3" stroke="#000000" points="1555.4482,-187 1406.5518,-187 1406.5518,-151 1555.4482,-151 1555.4482,-187"/>
<text text-anchor="middle" x="1481" y="-164.8" font-family="Times,serif" font-size="14.00" fill="#000000">CompareFilterRenderer</text>
</g>
<!-- CompareFilterRenderer&#45;&gt;GridModule -->
<g id="edge4" class="edge">
<title>CompareFilterRenderer&#45;&gt;GridModule</title>
<path fill="none" stroke="#000000" d="M1481,-187.2222C1481,-205.8285 1481,-232 1481,-232 1481,-232 950.8694,-232 950.8694,-232"/>
<polygon fill="#000000" stroke="#000000" points="950.8694,-228.5001 940.8694,-232 950.8693,-235.5001 950.8694,-228.5001"/>
</g>
<!-- ConfigMenuComponent -->
<g id="node5" class="node">
<title>ConfigMenuComponent</title>
<polygon fill="#ffffb3" stroke="#000000" points="1388.3794,-187 1235.6206,-187 1235.6206,-151 1388.3794,-151 1388.3794,-187"/>
<text text-anchor="middle" x="1312" y="-164.8" font-family="Times,serif" font-size="14.00" fill="#000000">ConfigMenuComponent</text>
</g>
<!-- ConfigMenuComponent&#45;&gt;GridModule -->
<g id="edge5" class="edge">
<title>ConfigMenuComponent&#45;&gt;GridModule</title>
<path fill="none" stroke="#000000" d="M1312,-187.0336C1312,-204.0597 1312,-227 1312,-227 1312,-227 950.746,-227 950.746,-227"/>
<polygon fill="#000000" stroke="#000000" points="950.746,-223.5001 940.746,-227 950.7459,-230.5001 950.746,-223.5001"/>
</g>
<!-- ConfigMultiChoiceComponent -->
<g id="node6" class="node">
<title>ConfigMultiChoiceComponent</title>
<polygon fill="#ffffb3" stroke="#000000" points="1217.493,-187 1026.507,-187 1026.507,-151 1217.493,-151 1217.493,-187"/>
<text text-anchor="middle" x="1122" y="-164.8" font-family="Times,serif" font-size="14.00" fill="#000000">ConfigMultiChoiceComponent</text>
</g>
<!-- ConfigMultiChoiceComponent&#45;&gt;GridModule -->
<g id="edge6" class="edge">
<title>ConfigMultiChoiceComponent&#45;&gt;GridModule</title>
<path fill="none" stroke="#000000" d="M1122,-187.2396C1122,-202.5706 1122,-222 1122,-222 1122,-222 950.6599,-222 950.6599,-222"/>
<polygon fill="#000000" stroke="#000000" points="950.66,-218.5001 940.6599,-222 950.6599,-225.5001 950.66,-218.5001"/>
</g>
<!-- GridComponent -->
<g id="node7" class="node">
<title>GridComponent</title>
<polygon fill="#ffffb3" stroke="#000000" points="1008.4902,-187 901.5098,-187 901.5098,-151 1008.4902,-151 1008.4902,-187"/>
<text text-anchor="middle" x="955" y="-164.8" font-family="Times,serif" font-size="14.00" fill="#000000">GridComponent</text>
</g>
<!-- GridComponent&#45;&gt;GridModule -->
<g id="edge7" class="edge">
<title>GridComponent&#45;&gt;GridModule</title>
<path fill="none" stroke="#000000" d="M921.0544,-187.1061C921.0544,-187.1061 921.0544,-205.991 921.0544,-205.991"/>
<polygon fill="#000000" stroke="#000000" points="917.5544,-205.9909 921.0544,-215.991 924.5544,-205.991 917.5544,-205.9909"/>
</g>
<!-- IsFixedPipe -->
<g id="node8" class="node">
<title>IsFixedPipe</title>
<polygon fill="#ffffb3" stroke="#000000" points="883.3809,-187 800.6191,-187 800.6191,-151 883.3809,-151 883.3809,-187"/>
<text text-anchor="middle" x="842" y="-164.8" font-family="Times,serif" font-size="14.00" fill="#000000">IsFixedPipe</text>
</g>
<!-- IsFixedPipe&#45;&gt;GridModule -->
<g id="edge11" class="edge">
<title>IsFixedPipe&#45;&gt;GridModule</title>
<path fill="none" stroke="#000000" d="M869.4183,-187.1061C869.4183,-187.1061 869.4183,-205.991 869.4183,-205.991"/>
<polygon fill="#000000" stroke="#000000" points="865.9184,-205.9909 869.4183,-215.991 872.9184,-205.991 865.9184,-205.9909"/>
</g>
<!-- IsGroupPipe -->
<g id="node9" class="node">
<title>IsGroupPipe</title>
<polygon fill="#ffffb3" stroke="#000000" points="782.2605,-187 695.7395,-187 695.7395,-151 782.2605,-151 782.2605,-187"/>
<text text-anchor="middle" x="739" y="-164.8" font-family="Times,serif" font-size="14.00" fill="#000000">IsGroupPipe</text>
</g>
<!-- IsGroupPipe&#45;&gt;GridModule -->
<g id="edge12" class="edge">
<title>IsGroupPipe&#45;&gt;GridModule</title>
<path fill="none" stroke="#000000" d="M739,-187.2396C739,-202.5706 739,-222 739,-222 739,-222 845.3909,-222 845.3909,-222"/>
<polygon fill="#000000" stroke="#000000" points="845.391,-225.5001 855.3909,-222 845.3909,-218.5001 845.391,-225.5001"/>
</g>
<!-- IsRowVisiblePipe -->
<g id="node10" class="node">
<title>IsRowVisiblePipe</title>
<polygon fill="#ffffb3" stroke="#000000" points="677.8739,-187 560.1261,-187 560.1261,-151 677.8739,-151 677.8739,-187"/>
<text text-anchor="middle" x="619" y="-164.8" font-family="Times,serif" font-size="14.00" fill="#000000">IsRowVisiblePipe</text>
</g>
<!-- IsRowVisiblePipe&#45;&gt;GridModule -->
<g id="edge13" class="edge">
<title>IsRowVisiblePipe&#45;&gt;GridModule</title>
<path fill="none" stroke="#000000" d="M619,-187.0336C619,-204.0597 619,-227 619,-227 619,-227 845.3222,-227 845.3222,-227"/>
<polygon fill="#000000" stroke="#000000" points="845.3222,-230.5001 855.3222,-227 845.3222,-223.5001 845.3222,-230.5001"/>
</g>
<!-- IsVisiblePipe -->
<g id="node11" class="node">
<title>IsVisiblePipe</title>
<polygon fill="#ffffb3" stroke="#000000" points="541.9316,-187 450.0684,-187 450.0684,-151 541.9316,-151 541.9316,-187"/>
<text text-anchor="middle" x="496" y="-164.8" font-family="Times,serif" font-size="14.00" fill="#000000">IsVisiblePipe</text>
</g>
<!-- IsVisiblePipe&#45;&gt;GridModule -->
<g id="edge14" class="edge">
<title>IsVisiblePipe&#45;&gt;GridModule</title>
<path fill="none" stroke="#000000" d="M496,-187.2222C496,-205.8285 496,-232 496,-232 496,-232 845.3595,-232 845.3595,-232"/>
<polygon fill="#000000" stroke="#000000" points="845.3596,-235.5001 855.3595,-232 845.3595,-228.5001 845.3596,-235.5001"/>
</g>
<!-- SelectFilterRenderer -->
<g id="node12" class="node">
<title>SelectFilterRenderer</title>
<polygon fill="#ffffb3" stroke="#000000" points="431.8389,-187 300.1611,-187 300.1611,-151 431.8389,-151 431.8389,-187"/>
<text text-anchor="middle" x="366" y="-164.8" font-family="Times,serif" font-size="14.00" fill="#000000">SelectFilterRenderer</text>
</g>
<!-- SelectFilterRenderer&#45;&gt;GridModule -->
<g id="edge15" class="edge">
<title>SelectFilterRenderer&#45;&gt;GridModule</title>
<path fill="none" stroke="#000000" d="M366,-187.2228C366,-207.3652 366,-237 366,-237 366,-237 845.3635,-237 845.3635,-237"/>
<polygon fill="#000000" stroke="#000000" points="845.3635,-240.5001 855.3635,-237 845.3635,-233.5001 845.3635,-240.5001"/>
</g>
<!-- TextEditRenderer -->
<g id="node13" class="node">
<title>TextEditRenderer</title>
<polygon fill="#ffffb3" stroke="#000000" points="282.2936,-187 165.7064,-187 165.7064,-151 282.2936,-151 282.2936,-187"/>
<text text-anchor="middle" x="224" y="-164.8" font-family="Times,serif" font-size="14.00" fill="#000000">TextEditRenderer</text>
</g>
<!-- TextEditRenderer&#45;&gt;GridModule -->
<g id="edge16" class="edge">
<title>TextEditRenderer&#45;&gt;GridModule</title>
<path fill="none" stroke="#000000" d="M224,-187.0449C224,-208.6623 224,-242 224,-242 224,-242 845.327,-242 845.327,-242"/>
<polygon fill="#000000" stroke="#000000" points="845.327,-245.5001 855.327,-242 845.3269,-238.5001 845.327,-245.5001"/>
</g>
<!-- TextFilterRenderer -->
<g id="node14" class="node">
<title>TextFilterRenderer</title>
<polygon fill="#ffffb3" stroke="#000000" points="147.7893,-187 24.2107,-187 24.2107,-151 147.7893,-151 147.7893,-187"/>
<text text-anchor="middle" x="86" y="-164.8" font-family="Times,serif" font-size="14.00" fill="#000000">TextFilterRenderer</text>
</g>
<!-- TextFilterRenderer&#45;&gt;GridModule -->
<g id="edge17" class="edge">
<title>TextFilterRenderer&#45;&gt;GridModule</title>
<path fill="none" stroke="#000000" d="M86,-187.0908C86,-210.1328 86,-247 86,-247 86,-247 845.2021,-247 845.2021,-247"/>
<polygon fill="#000000" stroke="#000000" points="845.2021,-250.5001 855.2021,-247 845.202,-243.5001 845.2021,-250.5001"/>
</g>
<!-- GridComponent  -->
<g id="node19" class="node">
<title>GridComponent </title>
<polygon fill="#fb8072" stroke="#000000" points="953.4913,-317 842.5087,-317 842.5087,-281 953.4913,-281 953.4913,-317"/>
<text text-anchor="middle" x="898" y="-294.8" font-family="Times,serif" font-size="14.00" fill="#000000">GridComponent </text>
</g>
<!-- GridModule&#45;&gt;GridComponent  -->
<g id="edge18" class="edge">
<title>GridModule&#45;&gt;GridComponent </title>
<path fill="none" stroke="#000000" stroke-dasharray="5,2" d="M898,-252.1061C898,-252.1061 898,-270.991 898,-270.991"/>
<polygon fill="#000000" stroke="#000000" points="894.5001,-270.9909 898,-280.991 901.5001,-270.991 894.5001,-270.9909"/>
</g>
<!-- GridService -->
<g id="node16" class="node">
<title>GridService</title>
<ellipse fill="#fdb462" stroke="#000000" cx="1111" cy="-104" rx="57.881" ry="18"/>
<text text-anchor="middle" x="1111" y="-99.8" font-family="Times,serif" font-size="14.00" fill="#000000">GridService</text>
</g>
<!-- GridService&#45;&gt;GridComponent -->
<g id="edge8" class="edge">
<title>GridService&#45;&gt;GridComponent</title>
<path fill="none" stroke="#000000" d="M1111,-122.1097C1111,-131.897 1111,-142 1111,-142 1111,-142 981.7476,-142 981.7476,-142 981.7476,-142 981.7476,-142.8841 981.7476,-142.8841"/>
<polygon fill="#000000" stroke="#000000" points="978.2477,-140.8408 981.7476,-150.8408 985.2477,-140.8409 978.2477,-140.8408"/>
</g>
<!-- GridEventService -->
<g id="node17" class="node">
<title>GridEventService</title>
<ellipse fill="#fdb462" stroke="#000000" cx="955" cy="-104" rx="80.4344" ry="18"/>
<text text-anchor="middle" x="955" y="-99.8" font-family="Times,serif" font-size="14.00" fill="#000000">GridEventService</text>
</g>
<!-- GridEventService&#45;&gt;GridComponent -->
<g id="edge9" class="edge">
<title>GridEventService&#45;&gt;GridComponent</title>
<path fill="none" stroke="#000000" d="M955,-122.1061C955,-122.1061 955,-140.991 955,-140.991"/>
<polygon fill="#000000" stroke="#000000" points="951.5001,-140.9909 955,-150.991 958.5001,-140.991 951.5001,-140.9909"/>
</g>
<!-- GridMessageService -->
<g id="node18" class="node">
<title>GridMessageService</title>
<ellipse fill="#fdb462" stroke="#000000" cx="765" cy="-104" rx="91.4481" ry="18"/>
<text text-anchor="middle" x="765" y="-99.8" font-family="Times,serif" font-size="14.00" fill="#000000">GridMessageService</text>
</g>
<!-- GridMessageService&#45;&gt;GridComponent -->
<g id="edge10" class="edge">
<title>GridMessageService&#45;&gt;GridComponent</title>
<path fill="none" stroke="#000000" d="M828.5168,-117.0163C828.5168,-124.3284 828.5168,-132 828.5168,-132 828.5168,-132 928.2525,-132 928.2525,-132 928.2525,-132 928.2525,-140.9336 928.2525,-140.9336"/>
<polygon fill="#000000" stroke="#000000" points="924.7525,-140.9335 928.2525,-150.9336 931.7525,-140.9336 924.7525,-140.9335"/>
</g>
</g>
</svg>
